Patient4_TMGait_0pt5_01_right_34_EMG.mot
version=1
nRows=33
nColumns=33
inDegrees=no
endheader
time	1LAddLong	2LGlutMax	3LGlutMed	4LIliopsoas	5LSemiMemb	6LBicFemLong	7LRecFem	8LVastMed	9LVastLat	10LGasMed	11LTibAnt	12lTibPost	13LPeroneusLong	14LSol	15LExtDigLong	16LFlexDigLong	17RAddLong	18RGlutMax	19RGlutMed	20RIliopsoas	21RSemiMemb	22RBicFemLong	23RRecFem	24RVastMed	25RVastLat	26RGasMed	27RTibAnt	28RTibPost	29RPeroneusLong	30RSol	31RExtDigLong	32RFlexDigLong
44.62	0.020599	-0.049591	0.14023	0.018616	-0.016785	0.058899	-0.024719	-0.007324	-0.12131	-0.13153	-0.027771	-0.010376	-0.11215	0.11475	0.091553	0.026855	-0.12573	-0.16708	0.19592	-0.11765	0.062561	-0.000458	0.056763	0.052032	0.069427	-0.01709	0.49454	-0.000153	-0.16647	-0.02655	-0.002289	0.000458
44.621	0.023346	-0.068817	0.078888	0.004578	0.055237	-0.065613	-0.14862	-0.015564	0.057678	-0.27939	-0.058441	-0.00824	-0.044708	0.001831	0.028076	0.038147	-0.10712	-0.14938	0.27512	-0.095367	0.10574	0.020905	-0.36285	-0.037537	0.056305	-0.002747	0.47928	-0.002289	0.041046	-0.066071	-0.001373	0.005646
44.622	0.005035	-0.076141	0.011902	-0.016022	0.080109	-0.024414	-0.2388	-0.016022	0.16632	-0.26215	-0.04364	-0.005341	-0.64896	-0.027771	-0.17471	0.032654	-0.11551	-0.22064	0.12985	-0.045471	0.12375	0.058136	-0.39444	0.05661	0.073242	0.010376	-0.29709	-0.003204	0.24597	-0.20157	-0.001068	0.005035
44.623	-0.008087	-0.054016	-0.045013	0.000763	0.073395	0.007019	-0.10483	-0.016479	0.17792	-0.10056	-0.02655	0.019073	-0.24567	-0.20569	-0.055389	-0.004883	-0.085907	-0.22385	0.18249	-0.10819	0.13275	0.0914	-0.069122	0.19745	0.062866	-0.003662	-0.65826	-0.006409	0.13245	-0.2092	0.005188	-0.002136
44.624	-0.003204	-0.066986	-0.12573	0.010071	-0.01236	-0.15457	0.063934	-0.017242	0.11871	0.028534	-0.014954	0.038147	-0.12589	-0.50781	0.032043	0.017242	0.01358	-0.17288	0.168	-0.12268	0.16312	0.10895	0.13443	0.30807	0.06012	-0.022278	-0.50354	-0.007782	-0.16998	-0.1622	0.002747	-0.003815
44.625	-0.016174	0.00824	-0.18417	0.023499	-0.12741	-0.0354	0.16708	-0.013123	-0.1004	0.12024	-0.02243	0.033417	0.33478	-0.65536	0.12146	0.010223	0.054779	-0.14725	0.13489	-0.067902	0.14999	0.068817	0.40924	0.30655	0.052948	-0.013885	-1.1034	-0.009308	-0.27374	-0.10849	-0.001678	0.002136
44.626	-0.037994	-0.060577	-0.33798	0.01709	-0.17181	0.12039	0.19043	0.001678	-0.1416	0.15686	-0.01297	-0.046997	0.27771	-0.53696	0.13107	0.027161	0.049744	-0.17777	0.16922	-0.026855	0.14862	0.05661	0.50568	0.26733	0.036011	-0.018768	-0.98572	-0.002899	-0.16464	-0.089569	-0.001373	0.006409
44.627	-0.017548	-0.065765	-0.30243	-0.040436	-0.086365	0.16098	0.15335	0.008392	-0.090485	0.15701	-0.021057	-0.014191	0.013123	-0.32577	0.17014	0.012512	0.084534	-0.16892	0.35248	0.055847	0.13702	0.024567	0.5629	0.27786	0.071411	-0.010681	-0.51895	-0.004578	-0.028229	0.050659	-0.002289	0.006256
44.628	0.006256	-0.058136	-0.27237	-0.011597	0.080109	0.20248	0.076904	0.010376	-0.048828	0.11368	-0.009308	-0.004578	-0.10925	-0.26794	0.15549	0.016174	0.03891	-0.11856	0.3212	0.1767	0.15045	0.009308	0.6279	0.14038	0.095367	-0.014343	-0.11429	-0.001221	0.002747	0.068665	0.010529	0.013123
44.629	0.020294	-0.12543	-0.1001	0.014496	0.14984	0.32044	0.066223	0.010071	-0.065613	0.062408	0.037079	0.001831	0.000763	0.079956	0.20569	0.03067	0.027924	-0.13428	0.044098	0.18921	0.13138	-0.033264	0.69992	0.12848	0.086975	-0.019684	0.24048	-0.003662	0.001678	-0.067139	-0.004578	0.005035
44.63	0.018768	-0.11673	-0.001068	0.03006	0.004578	0.29907	0.01236	0.008392	-0.046844	0.068359	0.003967	0.006866	-0.28168	0.14572	0.12116	0.02182	0.005188	-0.11276	0.2449	0.056458	0.12283	-0.038452	0.57449	0.25116	0.076294	-0.0177	0.54138	0.00412	0.042725	-0.062866	0.002136	-0.000153
44.631	0.037231	-0.16586	0.017395	0.043488	-0.06134	0.25955	-0.035858	0.000305	0.022888	0.056305	-0.041656	0.013733	-0.23987	0.058746	0.012512	0.029907	0.036621	-0.081024	0.38696	0.051117	0.1178	-0.04715	0.44113	0.30258	0.072937	-0.023193	0.56915	0.003357	0.094147	-0.034027	-0.006714	-0.001984
44.632	0.036163	-0.17471	0.16403	0.024719	-0.085144	0.31296	0.00824	-0.01358	0.050812	0.0383	0.039368	0.018311	-0.057678	0.04364	0.015717	0.014954	0.067444	-0.18463	0.3038	0.018768	0.1326	-0.021667	0.18631	0.2858	0.078278	-0.016022	0.83923	0.001678	0.035248	0.054169	0.004425	0.002136
44.633	0.029907	-0.13931	0.02533	-0.007477	-0.077667	0.070343	0.021667	-0.01236	0.035706	0.027618	0.078735	0.020142	0.3714	0.000763	0.074463	0.025177	0.11002	-0.19058	0.2536	0.015869	0.13473	-0.037689	0.075378	0.18601	0.032196	-0.014954	0.45853	0.000916	-0.007935	0.063477	-0.000763	0.003357
44.634	0.020752	-0.15121	0.017548	-0.010376	-0.014343	-0.022278	0.006409	-0.007935	0.070648	0.031128	0.086517	0.02121	0.66605	0.08728	0.1329	0.031586	0.20386	-0.18936	0.41885	0.054321	0.13153	-0.033722	-0.041962	0.042725	0.007019	-0.011902	0.1033	0.003204	0.072479	0.044098	0.000763	0.004425
44.635	0.014801	-0.14511	0.025635	-0.002136	-0.021667	0.010223	0.019379	0.005493	0.057831	-0.01236	0.072021	0.013428	-0.12711	0.12039	0.12878	0.034485	0.29388	-0.13214	0.44189	-0.029144	0.11002	-0.035706	-0.19119	-0.14114	-0.019073	-0.019684	0.065002	0.002747	-0.069275	0.11398	-0.003815	-0.01358
44.636	0.006409	-0.12039	0.004272	0.017242	-0.060883	-0.006561	0.050812	-0.003204	0.06073	0.005188	0.064697	0.012665	-0.26245	0.11765	0.054169	0.036926	0.24185	-0.18753	0.41519	-0.09079	0.098419	-0.045776	-0.28091	-0.2742	-0.047607	-0.026398	-0.11917	0.002594	-0.19257	0.14923	-0.00473	-0.010681
44.637	0.004272	-0.13473	-0.066681	-0.003204	-0.080566	0.13855	0.080566	-0.00351	0.056152	0.050507	-0.00061	-0.00061	-0.10193	0.17761	-0.066681	0.026703	0.094452	-0.19409	0.065002	-0.056152	0.059967	-0.072479	-0.17914	-0.30472	-0.064545	-0.027313	-0.46906	0.002594	-0.22064	0.15045	-0.000916	-0.015717
44.638	-0.001221	-0.11398	0.06485	-0.013428	-0.085907	0.007629	0.049744	-0.010681	0.061493	0.051117	-0.054626	0.007629	0.060272	0.019379	-0.20401	0.017395	-0.010986	-0.17914	0.24048	-0.16388	0.048981	-0.062866	-0.090332	-0.27344	-0.094757	-0.022583	-0.448	0.00351	-0.13794	0.1358	-0.001678	-0.005493
44.639	-0.007629	-0.083466	-0.094299	-0.011902	-0.10101	-0.20996	0.066528	0.001831	0.045624	0.037231	-0.016785	0.009003	0.080719	-0.066681	-0.15289	-0.006104	-0.11398	-0.17029	0.22034	-0.10086	0.03891	-0.051575	0.26032	-0.24368	-0.083313	-0.015259	-0.27054	0.007935	-0.049591	0.015717	-0.00061	-0.016022
44.64	-0.020447	-0.12299	-0.17761	-0.000458	-0.12741	-0.13168	0.079803	0.007019	0.03479	-0.044098	-0.039673	0.009918	-0.082245	0.057373	-0.10086	0.029297	-0.18692	-0.15595	0.072479	-0.015106	0.035706	-0.013885	0.35812	-0.25497	-0.081329	-0.009155	-0.31281	0.004425	0.042572	-0.069733	-0.002289	-0.0177
44.641	-0.015717	-0.12314	-0.062256	-0.020905	-0.11765	-0.019684	0.12497	0.011902	0.016479	-0.058441	0.020752	0.013275	0.1918	0.10452	-0.13962	0.027924	-0.17532	-0.10407	0.32928	-0.014648	0.058594	-0.004272	0.23804	-0.35751	-0.072632	-0.018463	-0.44098	0.00412	0.005951	-0.056152	0	-0.018463
44.642	-0.005188	-0.097656	-0.13062	-0.005341	-0.046844	0.040283	0.11765	0.006104	-0.000763	-0.034332	0.091248	0.002899	1.5286	-0.21774	-0.13046	0.008545	-0.14786	-0.028076	0.224	0.12451	0.064087	-0.00061	0.076599	-0.31326	-0.040741	-0.006714	-0.4808	0.005798	0.014496	-0.041351	0.000916	-0.025635
44.643	0.009613	-0.099792	-0.11719	0.008392	0.043182	0.010071	0.10544	0.000458	-0.004272	-0.011749	0.077057	0.008087	0.90378	-0.13275	-0.052185	0.028687	-0.083923	-0.038757	0.2063	0.22339	0.086823	-0.007782	0.082397	-0.26382	-0.037842	-0.014038	-0.26886	0.005035	-0.03952	-0.072021	-0.001068	-0.021057
44.644	0.034332	-0.098877	0.10483	-0.014038	0.079498	-0.21408	0.090179	-0.003204	-0.001984	-0.10483	0.022278	0.007172	-0.47577	0.26352	-0.12116	0.02594	-0.037384	-0.088348	0.23285	0.23377	0.11551	0.015259	0.11551	-0.20554	-0.045319	-0.009766	-0.29907	0.005951	-0.10803	-0.14236	-0.00412	-0.021362
44.645	0.052643	-0.1152	0.23712	0.009155	0.11032	0.1062	0.075226	-0.005798	0.017548	-0.28915	-0.050964	0.006409	-1.3744	0.4335	-0.047455	0.027618	-0.049286	-0.097351	0.60654	-0.020142	0.12878	0.024719	-0.011444	-0.22263	-0.05249	-0.00824	0.25024	0.005493	-0.10346	-0.17792	0.004578	-0.012207
44.646	0.054626	-0.080872	0.15274	-0.007629	0.13825	0.32837	0.037994	-0.005951	-0.034027	-0.24933	-0.040741	0.002594	-0.72784	0.35095	-0.11704	0.016022	-0.079041	-0.084991	0.4985	-0.085754	0.14725	0.03006	-0.26474	-0.22217	-0.042725	-0.016479	0.93063	0.001373	-0.16968	-0.17639	0.00061	-0.022583
44.647	0.040131	-0.090485	-0.055695	0.025177	0.090179	0.28336	0.045471	0.000153	-0.044556	-0.10284	0.001068	-0.007782	-0.32898	0.20218	-0.18402	0.002747	-0.091248	-0.10986	0.11841	-0.10834	0.14038	0.027466	-0.36591	-0.168	-0.03418	-0.015564	1.2372	0.007019	-0.18677	-0.22629	-0.000763	-0.018158
44.648	0.024567	-0.13077	-0.26901	0.041504	0.059509	-0.013733	0.058289	0.022736	0.007782	-0.07843	0.004272	-0.015717	0.041046	0.11337	-0.04364	-0.032959	-0.071716	-0.1152	-0.26169	0.098572	0.14297	-0.007477	-0.49698	-0.089111	-0.067902	-0.012817	1.1974	0.008698	-0.092468	-0.31906	-0.001068	-0.018311
44.649	0.003052	-0.090332	-0.15747	0.02182	0.023193	-0.47272	0.099487	0.036926	0.00885	-0.16266	0.030365	-0.014343	-0.10452	-0.042572	0.22705	0.11322	-0.041962	-0.058899	-0.20706	0.15717	0.12741	0.013275	-0.63049	-0.088501	-0.072021	-0.002747	0.5574	0.008392	-0.047913	-0.31769	-0.004883	-0.011292
44.65	0.003357	-0.078583	-0.24109	-0.015717	-0.019531	-0.22995	0.09613	0.020142	-0.043335	-0.1088	0.056152	-0.020599	-0.33188	-0.090179	0.41657	-0.006561	-0.010223	-0.04837	0.103	0.07843	0.11993	0.015717	-0.82977	-0.16998	-0.070801	-0.013428	0.31189	0.006409	-0.11643	-0.22736	-0.001068	-0.013885
44.651	-0.003052	-0.099487	-0.14633	-0.005798	-0.079651	-0.2243	0.070343	0.023041	0.021057	-0.015106	0.028839	-0.025787	-0.20584	-0.080719	0.31754	-0.10788	0.011902	-0.049591	0.28717	-0.035095	0.10681	0.009918	-0.79727	-0.26627	-0.066376	-0.007782	0.62943	0.008392	-0.070038	-0.25452	0.000916	-0.003967
44.652	0.002136	-0.083923	0.20416	0.007172	-0.088196	-0.4985	0.066376	0.018158	0.00473	0.26688	0.027618	-0.011597	-0.027313	-0.17029	0.1329	0.24567	0.034485	0.028076	0.48553	-0.061493	0.10681	0.022125	-0.40985	-0.23148	-0.022278	0.002747	0.7576	0.010529	0.045624	-0.3363	0.001984	-0.005035
